<?xml version="1.0" encoding="UTF-8" standalone="no"?>
<!-- Created with Inkscape (http://www.inkscape.org/) -->

<svg
   version="1.1"
   id="svg2"
   xml:space="preserve"
   width="100%"
   height="100%"
   viewBox="0 0 793.33331 1122.6667"
   sodipodi:docname="19597379_v1043-029a.ps"
   xmlns:inkscape="http://www.inkscape.org/namespaces/inkscape"
   xmlns:sodipodi="http://sodipodi.sourceforge.net/DTD/sodipodi-0.dtd"
   xmlns="http://www.w3.org/2000/svg"
   xmlns:svg="http://www.w3.org/2000/svg"><defs
     id="defs6"><clipPath
       clipPathUnits="userSpaceOnUse"
       id="clipPath18"><path
         d="M 0,8000 H 5950 V 0 H 0 Z"
         id="path16" /></clipPath><clipPath
       clipPathUnits="userSpaceOnUse"
       id="clipPath24"><path
         d="M 0,1010 H 1915 V 0 H 0 Z"
         id="path22" /></clipPath><pattern
       patternTransform="matrix(7,0,0,7,-1037,472)"
       patternUnits="userSpaceOnUse"
       x="0"
       y="0"
       width="191.5"
       height="101"
       id="pattern42"><g
         transform="scale(0.1)"
         id="g40"><g
           id="g38"><g
             clip-path="url(#clipPath24)"
             id="g36"><path
               d="m 1810,0 c 0,-57.9922 47.01,-105 105,-105 57.99,0 105,47.0078 105,105 0,57.9883 -47.01,105 -105,105 -57.99,0 -105,-47.0117 -105,-105"
               style="fill:#0c0c0d;fill-opacity:1;fill-rule:nonzero;stroke:none"
               id="path26" /><path
               d="m -105,0 c 0,-57.9922 47.0117,-105 105,-105 57.9922,0 105,47.0078 105,105 C 105,57.9883 57.9922,105 0,105 -57.9883,105 -105,57.9883 -105,0"
               style="fill:#0c0c0d;fill-opacity:1;fill-rule:nonzero;stroke:none"
               id="path28" /><path
               d="m 1810,1010 c 0,-57.992 47.01,-105 105,-105 57.99,0 105,47.008 105,105 0,57.99 -47.01,105 -105,105 -57.99,0 -105,-47.01 -105,-105"
               style="fill:#0c0c0d;fill-opacity:1;fill-rule:nonzero;stroke:none"
               id="path30" /><path
               d="m 852.5,505 c 0,-57.992 47.012,-105 105,-105 57.99,0 105,47.008 105,105 0,57.988 -47.01,105 -105,105 -57.988,0 -105,-47.012 -105,-105"
               style="fill:#0c0c0d;fill-opacity:1;fill-rule:nonzero;stroke:none"
               id="path32" /><path
               d="m -105,1010 c 0,-57.992 47.0117,-105 105,-105 57.9922,0 105,47.008 105,105 0,57.99 -47.0078,105 -105,105 -57.9883,0 -105,-47.01 -105,-105"
               style="fill:#0c0c0d;fill-opacity:1;fill-rule:nonzero;stroke:none"
               id="path34" /></g></g></g></pattern></defs><sodipodi:namedview
     id="namedview4"
     pagecolor="#ffffff"
     bordercolor="#666666"
     borderopacity="1.0"
     inkscape:pageshadow="2"
     inkscape:pageopacity="0.0"
     inkscape:pagecheckerboard="0" /><g
     id="g8"
     inkscape:groupmode="layer"
     inkscape:label="ink_ext_XXXXXX"
     transform="matrix(1.3333333,0,0,-1.3333333,0,1122.6667)"><g
       id="g10"
       transform="scale(0.1)"><g
         id="g12"><g
           id="g14"
           clip-path="url(#clipPath18)"><path
             d="M 12000,0 H 0 V 8000 H 12000 V 0"
             style="fill:#f9f9f8;fill-opacity:1;fill-rule:nonzero;stroke:none"
             id="path20" /><path
             d="M 12000,0 H 0 V 8000 H 12000 V 0"
             style="fill:url(#pattern42);fill-opacity:1;fill-rule:nonzero;stroke:none"
             id="path44" /></g></g></g></g></svg>
